<svg width="22" height="21" viewBox="0 0 22 21" fill="none" xmlns="http://www.w3.org/2000/svg">
<path d="M0.962646 10.0654C0.962646 4.41881 5.38594 0.238647 11.0933 0.238647C16.8007 0.238647 21.2239 4.41881 21.2239 10.0654C21.2239 15.712 16.8007 19.8921 11.0933 19.8921C10.0676 19.8921 9.0849 19.7566 8.16047 19.5033C7.98122 19.4536 7.79029 19.467 7.61975 19.5413L5.60882 20.4303C5.48736 20.4839 5.35461 20.5068 5.22223 20.4971C5.08984 20.4873 4.96188 20.4452 4.84958 20.3744C4.73728 20.3036 4.64409 20.2064 4.57819 20.0911C4.51229 19.9759 4.47571 19.8462 4.47165 19.7136L4.41593 17.9116C4.41201 17.8019 4.38586 17.6942 4.33906 17.5949C4.29225 17.4956 4.22578 17.4069 4.14367 17.3341C2.17326 15.5714 0.962646 13.0185 0.962646 10.0654ZM7.98572 8.2178L5.00984 12.9387C4.72492 13.392 5.28084 13.9024 5.70759 13.5794L8.90508 11.1532C9.01024 11.0733 9.13856 11.0298 9.27062 11.0294C9.40268 11.0289 9.5313 11.0715 9.63702 11.1506L12.0038 12.926C12.1717 13.052 12.3639 13.1417 12.5683 13.1897C12.7726 13.2376 12.9847 13.2428 13.1911 13.2047C13.3975 13.1666 13.5938 13.0862 13.7676 12.9685C13.9414 12.8508 14.0889 12.6983 14.2009 12.5208L17.1768 7.79991C17.4629 7.34657 16.9058 6.83623 16.479 7.15915L13.2815 9.58544C13.1764 9.66532 13.048 9.70877 12.916 9.70923C12.7839 9.70968 12.6553 9.66712 12.5496 9.58797L10.1828 7.81131C10.0149 7.68538 9.82268 7.5956 9.61833 7.54764C9.41399 7.49968 9.20192 7.49458 8.9955 7.53265C8.78908 7.57072 8.59279 7.65114 8.41899 7.76885C8.2452 7.88655 8.09768 8.04025 7.98572 8.2178Z" fill="white"/>
</svg>
